<?xml version="1.0" encoding="utf-8"?>
<!-- Generator: Adobe Illustrator 25.2.3, SVG Export Plug-In . SVG Version: 6.00 Build 0)  -->
<svg version="1.1" id="Layer_1" xmlns="http://www.w3.org/2000/svg" xmlns:xlink="http://www.w3.org/1999/xlink" x="0px" y="0px"
	 viewBox="0 0 100 125" style="enable-background:new 0 0 100 125;" xml:space="preserve">
<style type="text/css">
	.st0{fill:none;}
</style>
<rect x="-238" y="-233" class="st0" width="115" height="106"/>
<path d="M79.1,47.9c-0.1,0-0.1-0.1-0.2-0.1c1.1-2.1,1.6-4.5,1.2-6.5c-0.2-1.2-0.7-2.2-1.4-3.1c0.9-1.7,1-3.5,0.7-4.9
	c-0.8-3.5-4.2-6.3-7.7-6.3c-1.2,0-2.3,0.3-3.4,0.9c-1.4-1.3-3.2-2-5.2-2l0,0c-0.4,0-0.8,0-1.2,0.1c-0.2-0.3-0.4-0.6-0.6-0.9
	c-1.4-1.7-3.5-2.6-6-2.6l0,0c-1.7,0-3.5,0.4-4.9,1.2c-2-2.9-4.7-4.4-7.7-4.4c-1.4,0-2.9,0.4-4.3,1.1c-4.6,2.3-5.8,6.3-5.6,9.7
	c-1.9,0.5-3.6,1.8-4.5,3.6c-0.8,1.4-1,3-0.8,4.6c-2.7,0.9-4.9,3-5.3,5.4c-0.2,1.5,0.2,3.2,1.7,4.6c-0.9,1-1.3,2.2-1,3.5L28.9,78l0,0
	C25.2,80,23,83,23,86.5c0,0.3,0,0.7,0,0.9c-1.3,0.9-2.4,2.3-3,3.8c-1.2,2.8-0.6,5.9,1.4,7.9c1.4,1.4,3.5,2.2,5.9,2.2
	c1.9,0,3.7-0.5,5.3-1.4c0.6,1.5,1.7,2.7,3.2,3.3c1.7,0.7,3.6,0.6,5.2-0.1c0.8,0.9,2,1.8,3.4,2.2c0.5,0.2,1.2,0.3,2.1,0.3
	c1.8,0,4.3-0.7,6.4-3.8c0.2-0.4,0.4-0.8,0.6-1.3l16-8c1.1-0.5,1.8-1.5,2.1-2.7l9-38C80.8,50.5,80.3,48.9,79.1,47.9z M26.6,51
	l6.4,3.1l5.4,27.1c-1.5-1.6-3.3-2.7-5.4-3l0,0L26.6,51z M50.3,100.2c-1.3,1.9-2.8,2.7-4.5,2.4c-1.5-0.2-2.6-1.3-2.7-1.6
	c0-0.6-0.4-1.2-0.9-1.4c-0.6-0.2-1.2-0.1-1.6,0.3c-0.7,0.7-2.3,1-3.6,0.5c-1.2-0.5-1.8-1.7-1.8-3.4c0-0.8-0.7-1.5-1.5-1.5
	s-1.5,0.7-1.5,1.5c0-0.1,0-0.2,0-0.2c-1.5,1.1-3.2,1.6-4.8,1.6c-1.5,0-2.9-0.4-3.8-1.3c-2.8-2.8,0-8,4-8c-2.8,0-2-8,4-8
	c2.1,0,4,1.2,5.2,2.9c-1.8,2-2.6,4.4-2.7,4.6c-0.3,0.8,0.2,1.6,1,1.9s1.6-0.2,1.9-0.9c0.4-1.3,2.2-5,4.6-5c2.5,0,3.8,1.2,4.4,2.3
	c1,1.6,1.1,3.8,0.2,5.6c-0.2,0.5-0.2,1,0.1,1.5c0.3,0.5,0.8,0.7,1.3,0.7c1.3,0,2.1,0.9,2.5,1.7C50.8,97.7,50.8,99.5,50.3,100.2z
	 M49.6,87.7c-0.2-0.9-0.5-1.7-1-2.5c-1-1.5-2.3-2.6-4-3.2l-1.9-23.3l6.9,3.3V87.7z M57.6,94l-4,2v-34l6.9-3.3L57.6,94z M67.6,89
	l-4.9,2.4L70.6,54l-1.5,0.6l7.5-3.6L67.6,89z M75.8,47.1c-0.3,0.1-0.7,0.2-1,0.3l-11.1,5.3l-12.1,4.6L27.6,47
	c-5.4-1.8-1.6-6.2,2.5-6.2c0.5,0,1,0.1,1.5,0.2c-3.1-4.7-0.1-8.2,2.7-8.2c0.8,0,1.6,0.3,2.2,0.8c0,0-3.4-7.4,3-10.7
	c1-0.5,2-0.8,3-0.8c2.9,0,5.5,2.2,7,6.8c0-2,2.9-3.5,5.6-3.5c2.7,0,5.2,1.5,4.4,5.5c0.8-1.5,2.1-2.2,3.5-2.2c2.2,0,4.5,1.7,4.5,4.2
	c1.1-2.2,2.6-3,4.1-3c4,0,7.7,6.1,1.9,9C78.2,39,77.9,44.1,75.8,47.1z M66.9,39c-1.8-0.7-3.8-0.5-5.6,0.3c-0.3-2.5-1.8-4-3.5-4.8
	c-1.7-0.7-3.7-0.7-5.2,0c-1.2-3.2-4.5-5-7-5c-3.1,0-7.5,2.7-7.5,7.5c0,0.2,0.1,0.5,0.2,0.7c-2.4,0.6-4.2,2.8-4.2,5.3
	c0,0.8,0.7,1.5,1.5,1.5s1.5-0.7,1.5-1.5c0-1.4,1.1-2.5,2.5-2.5s2.5,1.1,2.5,2.5c0,0.1,0,0.2,0,0.4c-0.1,0.6,0.2,1.1,0.7,1.5
	c0.5,0.3,1.1,0.3,1.6,0c0.4-0.2,0.8-0.4,1.3-0.4c1.4,0,2.5,1.1,2.5,2.5c0,0.8,0.7,1.5,1.5,1.5s1.5-0.7,1.5-1.5c0-3-2.5-5.5-5.5-5.5
	c-0.2,0-0.5,0-0.7,0c-0.5-1.9-2-3.4-4-3.9c0.1-0.2,0.2-0.4,0.2-0.7c0-3.2,3.2-4.5,4.5-4.5c1.5,0,4.5,1.7,4.5,4.8
	c0,0.7,0.5,1.3,1.1,1.4c0.7,0.2,1.3-0.1,1.7-0.7c0.6-1,2.4-1.3,3.8-0.8c1.6,0.7,2.1,2.4,1.5,4.8c-0.2,0.7,0.1,1.4,0.7,1.7
	s1.4,0.2,1.8-0.3c1.8-2.1,3.9-2.3,5.2-1.8c1.4,0.5,2.2,1.8,2.2,3.5c0,0.8,0.7,1.5,1.5,1.5s1.5-0.7,1.5-1.5
	C71.1,42.4,69.5,39.9,66.9,39z"/>
</svg>
